<?xml version="1.0" encoding="UTF-8"?>
<svg id="Layer_1" data-name="Layer 1" xmlns="http://www.w3.org/2000/svg" viewBox="0 0 4036.61 849.74">
  <defs>
    <style>
      .cls-1 {
        fill: #f2efeb;
      }
    </style>
  </defs>
  <g>
    <path class="cls-1" d="M595.62,735.75c-2.03,5.07-4.69,9.54-7.98,13.43-3.29,3.89-7.14,7.22-11.53,10.01-4.39,2.79-8.87,5.03-13.43,6.71-4.73,1.69-9.8,2.96-15.2,3.8-5.41.85-10.85,1.48-16.34,1.9-5.49.42-10.85.63-16.09.63h-13.68v23.81c0,2.87.04,5.53.13,7.98.08,2.45.13,5.11.13,7.98.17,5.41.34,10.05.51,13.93.17,3.89,1.1,7.09,2.79,9.63,1.35,2.2,3.97,4.39,7.85,6.59,3.88,2.2,9.29,3.46,16.21,3.8v2.53h-81.06v-2.53c4.22-.67,8.27-1.69,12.16-3.04,3.88-1.35,6.92-3.38,9.12-6.08.84-1.01,1.52-2.53,2.03-4.56s.89-4.31,1.14-6.84c.25-2.53.46-5.23.63-8.11.17-2.87.25-5.66.25-8.36,0-2.36.04-5.57.13-9.63.08-4.05.17-8.49.25-13.3.08-4.81.13-9.75.13-14.82v-64.09c0-3.04-.04-6.12-.13-9.25-.09-3.12-.25-6.08-.51-8.87s-.68-5.32-1.27-7.6c-.59-2.28-1.39-3.93-2.41-4.94-2.53-2.7-5.79-4.52-9.75-5.45-3.97-.93-8.23-1.73-12.79-2.41v-2.53h6.08c3.21,0,6.97-.04,11.27-.13,4.31-.08,8.99-.13,14.06-.13s10.09-.04,15.07-.13c4.98-.08,9.67-.13,14.06-.13h11.4c11.15,0,21.02.55,29.64,1.65,8.61,1.1,16.72,3.76,24.32,7.98,7.43,4.05,13.59,9.8,18.49,17.23,4.9,7.43,7.35,16.21,7.35,26.34,0,6.25-1.01,11.91-3.04,16.97ZM563.83,691.42c-4.98-7.6-11.53-13.34-19.63-17.22-4.05-1.86-8.36-3.12-12.92-3.8-4.56-.67-9.29-1.01-14.19-1.01-3.55,0-6.29.13-8.23.38-1.94.25-3.51.47-4.69.63-.17,1.01-.38,1.9-.63,2.66-.25.76-.47,1.73-.63,2.91-.17,1.18-.34,2.83-.51,4.94-.17,2.11-.34,5.11-.51,8.99-.17,5.91-.3,13.09-.38,21.53-.09,8.45-.13,16.72-.13,24.83v32.42c6.92,0,13.43-.21,19.51-.63,6.08-.42,11.74-1.56,16.97-3.42,10.81-3.71,19.08-9.84,24.82-18.37,5.74-8.53,8.61-18.11,8.61-28.75,0-9.79-2.49-18.49-7.47-26.09Z"/>
    <path class="cls-1" d="M758.75,848.47c-1.52-1.52-2.62-2.66-3.29-3.42-.68-.76-1.44-1.65-2.28-2.66-.85-1.01-1.9-2.49-3.17-4.43-1.27-1.94-3.25-4.85-5.95-8.74-3.21-4.73-6.04-8.99-8.49-12.79-2.45-3.8-4.94-7.56-7.47-11.27-2.53-3.71-5.28-7.47-8.23-11.27-2.96-3.8-6.46-8.06-10.51-12.79-3.38-3.88-7.05-7.51-11.02-10.89-3.97-3.38-8.15-5.49-12.54-6.33-3.21-.67-5.66-1.01-7.35-1.01-1.52,0-3.46-.08-5.83-.25v28.62c0,8.11.08,14.95.25,20.52.17,5.41.34,10.05.51,13.93.17,3.89,1.1,7.09,2.79,9.63,1.35,2.2,3.97,4.43,7.85,6.71,3.88,2.28,9.29,3.59,16.21,3.93v2.53h-81.06v-2.53c4.22-.67,8.27-1.69,12.16-3.04,3.88-1.35,6.92-3.38,9.12-6.08.84-1.01,1.52-2.53,2.03-4.56.51-2.03.89-4.31,1.14-6.84.25-2.53.46-5.23.63-8.11.17-2.87.25-5.66.25-8.36,0-2.36.04-5.57.13-9.63.08-4.05.17-8.49.25-13.3.08-4.81.13-9.75.13-14.82v-64.09c0-3.04-.04-6.12-.13-9.25-.09-3.12-.25-6.08-.51-8.87s-.68-5.32-1.27-7.6c-.59-2.28-1.39-3.93-2.41-4.94-2.53-2.7-5.36-4.52-8.49-5.45-3.13-.93-6.97-1.73-11.53-2.41v-2.53h10.39c5.74,0,12.24-.04,19.5-.13,7.26-.08,14.52-.13,21.79-.13h17.73c11.31,0,21.36.34,30.14,1.01,8.78.68,16.8,2.96,24.07,6.84,7.43,3.89,13.42,9.16,17.98,15.83,4.56,6.67,6.84,15.07,6.84,25.2,0,6.25-1.14,11.87-3.42,16.85-2.28,4.98-5.32,9.37-9.12,13.17-3.8,3.8-8.23,7.05-13.3,9.75-5.07,2.7-10.39,4.98-15.96,6.84v.76c2.87,1.52,5.66,3.72,8.36,6.59,2.7,2.87,5.32,6.08,7.85,9.63,4.39,6.42,9.16,13.34,14.31,20.77,5.15,7.43,9.75,14.02,13.81,19.76,6.25,8.78,12.33,15.2,18.24,19.25,5.91,4.05,12.83,6.67,20.77,7.85v2.53h-51.93ZM733.68,690.66c-4.22-6.59-10.39-11.82-18.49-15.71-4.05-1.86-8.32-3.21-12.79-4.05-4.48-.84-9.16-1.27-14.06-1.27-3.55,0-6.42.09-8.61.25-2.2.17-3.89.34-5.07.51-.17,1.01-.34,1.9-.51,2.66-.17.76-.3,1.73-.38,2.91-.09,1.18-.17,2.83-.25,4.94-.09,2.11-.21,5.11-.38,8.99-.17,5.91-.3,12.58-.38,20.01-.09,7.43-.13,14.61-.13,21.53v27.87c6.92,0,13.38-.29,19.38-.89,5.99-.59,11.78-1.81,17.35-3.67,5.4-1.69,10.05-3.97,13.93-6.84,3.88-2.87,7.05-6.12,9.5-9.75,2.45-3.63,4.26-7.56,5.45-11.78,1.18-4.22,1.77-8.61,1.77-13.17,0-8.44-2.11-15.96-6.33-22.54Z"/>
    <path class="cls-1" d="M818.53,848.47v-2.53c4.22-.67,8.15-1.77,11.78-3.29,3.63-1.52,6.71-3.71,9.25-6.59.84-1.01,1.48-2.45,1.9-4.31.42-1.86.76-4.05,1.01-6.59.25-2.53.42-5.19.51-7.98.08-2.79.13-5.53.13-8.23,0-2.36.04-5.57.13-9.63.08-4.05.17-8.49.25-13.3.08-4.81.13-9.75.13-14.82v-73.21c0-3.04-.13-5.87-.38-8.49-.25-2.62-.63-4.98-1.14-7.09-.51-2.11-1.27-3.76-2.28-4.94-2.37-2.87-5.28-4.94-8.74-6.21-3.46-1.27-7.39-2.15-11.78-2.66v-2.53h75.74v2.53c-3.55.51-7.35,1.44-11.4,2.79-4.05,1.35-7.18,4.05-9.37,8.11-1.52,2.87-2.32,6.5-2.41,10.89-.09,4.39-.21,8.53-.38,12.41,0,4.22-.04,8.4-.13,12.54-.09,4.14-.13,8.32-.13,12.54v84.86c0,4.9.08,9.63.25,14.19.17,4.56.93,7.77,2.28,9.63,2.03,2.87,5.23,5.07,9.63,6.59,4.39,1.52,8.36,2.45,11.91,2.79v2.53h-76.75Z"/>
    <path class="cls-1" d="M1112.25,673.43c-3.8,2.37-6.71,6-8.74,10.89-1.18,2.53-1.94,7.22-2.28,14.06-.34,6.84-.68,14.15-1.01,21.91-.34,7.26-.63,15.83-.89,25.71-.25,9.88-.38,20.48-.38,31.79v16.21c0,5.91.04,11.95.13,18.11.08,6.17.13,12.29.13,18.37v16.47c0,.68-.21,1.23-.63,1.65-.42.42-1.06.63-1.9.63-1.35,0-2.87-.84-4.56-2.53-14.36-16.55-27.44-31.75-39.26-45.6-11.82-13.84-23.1-27.06-33.82-39.64-10.73-12.58-21.24-24.86-31.54-36.86-10.3-11.99-21.2-24.4-32.68-37.24v106.9c0,8.61.21,16.38.63,23.3.42,6.93,1.48,12.08,3.17,15.45,1.86,3.89,4.77,6.8,8.74,8.74,3.97,1.94,9.41,3.34,16.34,4.18v2.53h-62.31v-2.53c4.05-.51,8.11-1.56,12.16-3.17,4.05-1.6,7.26-4.26,9.63-7.98,2.36-3.55,3.88-8.78,4.56-15.71.67-6.92,1.18-15.2,1.52-24.82.34-7.26.59-15.83.76-25.71.17-9.88.25-20.47.25-31.79v-30.9c0-3.38-.09-7.51-.25-12.41-.51-4.9-1.69-8.91-3.55-12.03-1.86-3.12-4.05-5.57-6.59-7.35s-5.28-3.04-8.23-3.8c-2.96-.76-5.79-1.31-8.49-1.65v-2.53h51.42l120.07,140.34v-86.13c0-6.75-.09-13.21-.25-19.38-.17-6.16-.93-11.02-2.28-14.57-1.69-4.73-4.69-8.57-8.99-11.53-4.31-2.95-10.51-5.02-18.62-6.21v-2.53h62.82v2.53c-6.25.85-11.27,2.45-15.07,4.81Z"/>
    <path class="cls-1" d="M1327.44,713.71c-1.35-3.04-2.96-6.21-4.81-9.5-1.86-3.29-3.76-6.37-5.7-9.25-1.94-2.87-3.84-5.53-5.7-7.98-1.86-2.45-3.46-4.26-4.81-5.45-3.55-3.38-7.39-5.61-11.53-6.71-4.14-1.1-9.42-1.73-15.83-1.9-3.21,0-6-.04-8.36-.13-2.37-.08-4.73-.13-7.09-.13h-16.72c0,4.22-.04,9.97-.13,17.23-.09,7.26-.13,14.86-.13,22.8v99.05c0,4.9.13,9.59.38,14.06.25,4.48,1.05,7.64,2.41,9.5,2.53,3.72,6.12,6.25,10.77,7.6,4.64,1.35,8.82,2.37,12.54,3.04v2.53h-82.33v-2.53c4.39-.51,8.61-1.35,12.67-2.53,4.05-1.18,8.02-3.97,11.91-8.36.84-.84,1.48-2.24,1.9-4.18.42-1.94.76-4.14,1.01-6.59.25-2.45.42-5.11.51-7.98.08-2.87.13-5.66.13-8.36,0-2.36.04-5.49.13-9.37.08-3.88.17-8.19.25-12.92.08-4.73.13-9.62.13-14.69v-98.29h-16.72c-2.2,0-4.52.04-6.97.13-2.45.09-5.28.13-8.49.13-6.42.17-11.7.93-15.83,2.28-4.14,1.35-7.98,3.72-11.53,7.09-1.35,1.18-2.91,2.96-4.69,5.32-1.77,2.37-3.63,4.94-5.57,7.73-1.94,2.79-3.8,5.79-5.57,8.99-1.77,3.21-3.17,6.33-4.18,9.37l-2.28-.76,7.6-48.13c3.88.85,7.47,1.52,10.77,2.03s8.06.85,14.31,1.01c6.42.17,12.16.3,17.23.38,5.07.09,9.96.13,14.69.13h48.13c5.07,0,9.96-.04,14.69-.13,4.73-.08,9.63-.17,14.69-.25,5.07-.08,10.81-.13,17.23-.13,5.57-.17,10.17-.63,13.81-1.39,3.63-.76,7.39-1.73,11.27-2.91l8.11,49.4-2.28.76Z"/>
    <path class="cls-1" d="M1343.14,848.47v-2.53c4.22-.67,8.15-1.77,11.78-3.29,3.63-1.52,6.71-3.71,9.25-6.59.84-1.01,1.48-2.45,1.9-4.31.42-1.86.76-4.05,1.01-6.59.25-2.53.42-5.19.51-7.98.08-2.79.13-5.53.13-8.23,0-2.36.04-5.57.13-9.63.08-4.05.17-8.49.25-13.3.08-4.81.13-9.75.13-14.82v-73.21c0-3.04-.13-5.87-.38-8.49-.25-2.62-.63-4.98-1.14-7.09-.51-2.11-1.27-3.76-2.28-4.94-2.37-2.87-5.28-4.94-8.74-6.21-3.46-1.27-7.39-2.15-11.78-2.66v-2.53h75.74v2.53c-3.55.51-7.35,1.44-11.4,2.79-4.05,1.35-7.18,4.05-9.37,8.11-1.52,2.87-2.32,6.5-2.41,10.89-.09,4.39-.21,8.53-.38,12.41,0,4.22-.04,8.4-.13,12.54-.09,4.14-.13,8.32-.13,12.54v84.86c0,4.9.08,9.63.25,14.19.17,4.56.93,7.77,2.28,9.63,2.03,2.87,5.23,5.07,9.63,6.59,4.39,1.52,8.36,2.45,11.91,2.79v2.53h-76.75Z"/>
    <path class="cls-1" d="M1636.86,673.43c-3.8,2.37-6.71,6-8.74,10.89-1.18,2.53-1.94,7.22-2.28,14.06-.34,6.84-.68,14.15-1.01,21.91-.34,7.26-.63,15.83-.89,25.71-.25,9.88-.38,20.48-.38,31.79v16.21c0,5.91.04,11.95.13,18.11.08,6.17.13,12.29.13,18.37v16.47c0,.68-.21,1.23-.63,1.65-.42.42-1.06.63-1.9.63-1.35,0-2.87-.84-4.56-2.53-14.36-16.55-27.44-31.75-39.26-45.6-11.82-13.84-23.1-27.06-33.82-39.64-10.73-12.58-21.24-24.86-31.54-36.86-10.3-11.99-21.2-24.4-32.68-37.24v106.9c0,8.61.21,16.38.63,23.3.42,6.93,1.48,12.08,3.17,15.45,1.86,3.89,4.77,6.8,8.74,8.74,3.97,1.94,9.41,3.34,16.34,4.18v2.53h-62.31v-2.53c4.05-.51,8.11-1.56,12.16-3.17,4.05-1.6,7.26-4.26,9.63-7.98,2.36-3.55,3.88-8.78,4.56-15.71.67-6.92,1.18-15.2,1.52-24.82.34-7.26.59-15.83.76-25.71.17-9.88.25-20.47.25-31.79v-30.9c0-3.38-.09-7.51-.25-12.41-.51-4.9-1.69-8.91-3.55-12.03-1.86-3.12-4.05-5.57-6.59-7.35s-5.28-3.04-8.23-3.8c-2.96-.76-5.79-1.31-8.49-1.65v-2.53h51.42l120.07,140.34v-86.13c0-6.75-.09-13.21-.25-19.38-.17-6.16-.93-11.02-2.28-14.57-1.69-4.73-4.69-8.57-8.99-11.53-4.31-2.95-10.51-5.02-18.62-6.21v-2.53h62.82v2.53c-6.25.85-11.27,2.45-15.07,4.81Z"/>
    <path class="cls-1" d="M1855.34,766.27c-3.38,1.1-5.83,2.83-7.35,5.19-1.18,1.86-1.86,4.73-2.03,8.61-.17,3.89-.25,7.77-.25,11.65v36.98c-1.18,1.01-4.1,2.7-8.74,5.07-4.65,2.37-10.3,4.77-16.97,7.22-6.67,2.45-14.06,4.52-22.17,6.21-8.11,1.69-16.21,2.53-24.32,2.53-16.05,0-30.4-2.07-43.06-6.21-12.67-4.14-23.35-10.22-32.04-18.24-8.7-8.02-15.37-17.82-20.01-29.38-4.65-11.57-6.97-24.53-6.97-38.88,0-4.22.42-9.08,1.27-14.57.84-5.49,2.32-11.27,4.43-17.35,2.11-6.08,5.07-12.24,8.87-18.49,3.8-6.25,8.57-12.16,14.31-17.73,8.11-7.94,18.07-14.31,29.89-19.12,11.82-4.81,26.17-7.22,43.06-7.22,10.13,0,19.08.89,26.85,2.66,7.77,1.77,14.31,3.72,19.63,5.83,5.32,2.11,9.41,4.05,12.29,5.83,2.87,1.77,4.47,2.66,4.81,2.66s1.27-1.01,2.79-3.04,3.38-4.47,5.57-7.35h2.28v55.22h-3.04c-1.86-7.6-4.65-14.78-8.36-21.53-3.72-6.75-7.69-12.33-11.91-16.72-5.41-5.74-12.33-10.39-20.77-13.93-8.45-3.55-17.9-5.32-28.37-5.32-11.15,0-21.2,2.49-30.14,7.47-8.95,4.98-16.55,11.65-22.8,20.01-6.25,8.36-11.06,17.99-14.44,28.88-3.38,10.89-5.07,22.33-5.07,34.32,0,13.17,1.6,25.2,4.81,36.1,3.21,10.89,7.85,20.23,13.93,27.99,6.08,7.77,13.51,13.81,22.29,18.11,8.78,4.31,18.83,6.46,30.14,6.46,8.11,0,15.66-1.39,22.67-4.18,7.01-2.79,12.54-7.3,16.59-13.55,1.35-2.19,2.36-6.08,3.04-11.65.67-5.57,1.01-11.31,1.01-17.23s-.3-11.23-.89-15.96c-.59-4.73-2.32-8.61-5.19-11.65-3.89-4.39-10.73-7.01-20.52-7.85v-2.53h74.22v2.53c-2.87.34-6,1.06-9.37,2.15Z"/>
    <path class="cls-1" d="M2049.12,848.47v-2.53c.51,0,1.73-.17,3.67-.51,1.94-.34,3.97-.93,6.08-1.77,2.11-.84,3.97-2.03,5.57-3.55,1.6-1.52,2.41-3.46,2.41-5.83,0-1.52-.47-4.01-1.39-7.47-.93-3.46-2.24-7.68-3.93-12.67-1.69-4.98-3.63-10.51-5.83-16.59-2.2-6.08-4.56-12.41-7.09-19h-67.38c-2.53,6.42-4.98,12.54-7.35,18.37-2.37,5.83-4.73,11.7-7.09,17.61-3.55,9.12-5.32,15.54-5.32,19.25,0,2.2.67,4.01,2.03,5.45,1.35,1.44,3.08,2.62,5.19,3.55,2.11.93,4.39,1.61,6.84,2.03,2.45.42,4.77.8,6.97,1.14v2.53h-53.96v-2.79c4.39-.51,8.15-1.69,11.27-3.55,3.12-1.86,4.94-3.12,5.45-3.8,1.18-1.18,3.12-3.97,5.83-8.36,2.7-4.39,5.99-10.89,9.88-19.5,3.55-7.94,7.51-16.97,11.91-27.1,4.39-10.13,8.91-20.56,13.55-31.28,4.64-10.72,9.25-21.53,13.81-32.42,4.56-10.89,8.87-21.07,12.92-30.52l-2.53-5.57c3.04-1.35,5.78-2.95,8.23-4.81,2.45-1.86,4.6-3.8,6.46-5.83,1.86-2.03,3.42-3.97,4.69-5.83,1.27-1.86,2.24-3.38,2.91-4.56h2.03c5.23,14.02,10.22,27.32,14.95,39.9,4.73,12.58,9.25,24.7,13.55,36.35,4.31,11.65,8.49,22.92,12.54,33.82,4.05,10.89,8.11,21.66,12.16,32.3,1.86,5.24,3.59,9.59,5.19,13.05,1.6,3.46,3.42,7.39,5.45,11.78.34.68,1.1,1.86,2.28,3.55,1.18,1.69,2.74,3.42,4.69,5.19,1.94,1.77,4.35,3.34,7.22,4.69,2.87,1.35,6.25,2.11,10.13,2.28v3.04h-73.97ZM2015.94,694.96c-1.01,2.2-2.49,5.66-4.43,10.39-1.94,4.73-4.35,10.47-7.22,17.23-2.87,6.76-6.04,14.4-9.5,22.92-3.46,8.53-7.22,17.78-11.27,27.74h63.08c-2.87-7.6-5.79-15.2-8.74-22.8-2.96-7.6-5.83-14.9-8.61-21.91-2.79-7-5.32-13.42-7.6-19.25-2.28-5.83-4.18-10.59-5.7-14.31Z"/>
    <path class="cls-1" d="M2377.54,673.43c-3.8,2.37-6.71,6-8.74,10.89-1.18,2.53-1.94,7.22-2.28,14.06-.34,6.84-.68,14.15-1.01,21.91-.34,7.26-.63,15.83-.89,25.71-.25,9.88-.38,20.48-.38,31.79v16.21c0,5.91.04,11.95.13,18.11.08,6.17.13,12.29.13,18.37v16.47c0,.68-.21,1.23-.63,1.65-.42.42-1.06.63-1.9.63-1.35,0-2.87-.84-4.56-2.53-14.36-16.55-27.44-31.75-39.26-45.6-11.82-13.84-23.1-27.06-33.82-39.64-10.73-12.58-21.24-24.86-31.54-36.86-10.3-11.99-21.2-24.4-32.68-37.24v106.9c0,8.61.21,16.38.63,23.3.42,6.93,1.48,12.08,3.17,15.45,1.86,3.89,4.77,6.8,8.74,8.74,3.97,1.94,9.41,3.34,16.34,4.18v2.53h-62.31v-2.53c4.05-.51,8.11-1.56,12.16-3.17,4.05-1.6,7.26-4.26,9.63-7.98,2.36-3.55,3.88-8.78,4.56-15.71.67-6.92,1.18-15.2,1.52-24.82.34-7.26.59-15.83.76-25.71.17-9.88.25-20.47.25-31.79v-30.9c0-3.38-.09-7.51-.25-12.41-.51-4.9-1.69-8.91-3.55-12.03-1.86-3.12-4.05-5.57-6.59-7.35s-5.28-3.04-8.23-3.8c-2.96-.76-5.79-1.31-8.49-1.65v-2.53h51.42l120.07,140.34v-86.13c0-6.75-.09-13.21-.25-19.38-.17-6.16-.93-11.02-2.28-14.57-1.69-4.73-4.69-8.57-8.99-11.53-4.31-2.95-10.51-5.02-18.62-6.21v-2.53h62.82v2.53c-6.25.85-11.27,2.45-15.07,4.81Z"/>
    <path class="cls-1" d="M2570.44,848.47h-155.03v-2.53c4.22-.67,8.15-1.77,11.78-3.29,3.63-1.52,6.63-3.63,8.99-6.33.84-1.01,1.52-2.49,2.03-4.43.51-1.94.97-4.18,1.39-6.71.42-2.53.72-5.19.89-7.98.17-2.79.25-5.53.25-8.23,0-2.36.04-5.57.13-9.63.08-4.05.17-8.49.25-13.3.08-4.81.13-9.75.13-14.82v-64.09c0-3.04-.04-6.16-.13-9.37-.09-3.21-.25-6.25-.51-9.12-.25-2.87-.68-5.45-1.27-7.73-.59-2.28-1.39-3.93-2.41-4.94-2.53-2.7-5.24-4.43-8.11-5.19-2.87-.76-6.59-1.48-11.15-2.15v-2.53h139.83l17.23,41.8-2.53,1.27c-13.68-17.06-26.51-28.54-38.5-34.45-2.87-1.35-8.19-2.53-15.96-3.55-7.77-1.01-17.23-1.52-28.37-1.52-3.55,0-7.22.13-11.02.38-3.8.25-6.55.55-8.23.89-.34,2.7-.63,8.28-.89,16.72-.25,8.45-.38,18.24-.38,29.38v16.21c0,4.39.04,7.98.13,10.77.08,2.79.13,4.94.13,6.46v2.79h5.07c2.53,0,5.45-.08,8.74-.25,3.29-.17,6.59-.38,9.88-.63,3.29-.25,6.04-.63,8.23-1.14,5.07-1.18,9.29-2.79,12.67-4.81,3.38-2.03,6.12-4.47,8.23-7.35,2.11-2.87,3.8-6.21,5.07-10.01s2.41-8.06,3.42-12.79h3.04v79.79h-3.04c-1.35-5.4-3.42-10.98-6.21-16.72-2.79-5.74-5.7-10.05-8.74-12.92-2.7-2.36-5.95-4.31-9.75-5.83-3.8-1.52-8.23-2.45-13.3-2.79-2.53-.17-4.65-.29-6.33-.38-1.69-.08-3.38-.13-5.07-.13h-11.65c-.34,2.37-.51,5.83-.51,10.39v30.4c0,2.7.04,5.28.13,7.73.08,2.45.13,4.52.13,6.21.17,5.41.46,10.51.89,15.33.42,4.81,1.39,8.4,2.91,10.77,1.52,2.37,5.15,4.05,10.89,5.07,5.74,1.01,11.99,1.52,18.75,1.52,2.87,0,6.54-.08,11.02-.25,4.47-.17,9.16-.59,14.06-1.27,5.4-.67,10.39-1.98,14.95-3.93,4.56-1.94,8.95-4.69,13.17-8.23,4.22-3.55,8.32-7.89,12.29-13.05,3.97-5.15,8.06-11.36,12.29-18.62l2.79.76-12.67,48.38Z"/>
    <path class="cls-1" d="M2838.06,672.17c-2.96,1.86-4.69,3.13-5.19,3.8-.51.51-1.27,1.35-2.28,2.53-1.01,1.18-2.2,2.83-3.55,4.94-1.35,2.11-2.79,4.81-4.31,8.11s-3.13,7.39-4.81,12.29c-2.7,8.28-5.83,17.44-9.37,27.49-3.55,10.05-7.14,20.39-10.77,31.03-3.63,10.64-7.31,21.32-11.02,32.04-3.72,10.73-7.18,20.9-10.39,30.52l-10.64,24.32h-2.53c-4.56-12.16-8.83-23.81-12.79-34.96-3.97-11.15-7.77-21.87-11.4-32.17-3.63-10.3-7.14-20.3-10.51-30.02-3.38-9.71-6.84-19.29-10.39-28.75-2.7,7.77-5.57,15.92-8.61,24.44-3.04,8.53-6.08,17.19-9.12,25.96-3.04,8.78-6.08,17.44-9.12,25.96-3.04,8.53-6,16.76-8.87,24.7l-11.15,24.82h-3.04c-5.24-13.68-10.18-26.68-14.82-39.01-4.65-12.33-9.12-24.19-13.43-35.59-4.31-11.4-8.49-22.46-12.54-33.18-4.05-10.72-8.11-21.4-12.16-32.04-1.18-3.21-2.24-5.99-3.17-8.36-.93-2.36-1.77-4.56-2.53-6.59-.76-2.03-1.56-3.97-2.41-5.83-.85-1.86-1.77-3.8-2.79-5.83-.51-1.01-1.23-2.28-2.15-3.8-.93-1.52-2.24-3-3.93-4.43-1.69-1.43-3.72-2.7-6.08-3.8-2.36-1.1-5.4-1.73-9.12-1.9v-2.79h71.43v2.53c-.85,0-2.28.17-4.31.51-2.03.34-4.14.93-6.33,1.77-2.2.85-4.1,2.11-5.7,3.8-1.61,1.69-2.41,3.97-2.41,6.84,0,1.52.89,5.03,2.66,10.51,1.77,5.49,4.09,12.16,6.97,20.01,2.87,7.85,6.04,16.43,9.5,25.71,3.46,9.29,6.92,18.45,10.39,27.48,3.46,9.04,6.71,17.48,9.75,25.33,3.04,7.85,5.49,14.31,7.35,19.38.51-1.35,1.77-4.85,3.8-10.51,2.03-5.66,4.56-12.75,7.6-21.28,3.04-8.53,6.42-18.15,10.13-28.88,3.71-10.72,7.43-21.91,11.15-33.56-2.53-6.75-4.81-12.71-6.84-17.86-2.03-5.15-4.22-10.17-6.59-15.07-.68-1.35-1.56-2.79-2.66-4.31-1.1-1.52-2.62-3-4.56-4.43-1.94-1.43-4.35-2.62-7.22-3.55-2.87-.93-6.33-1.48-10.39-1.65v-2.79h79.29v2.53c-1.01.17-2.83.42-5.45.76-2.62.34-5.24.97-7.85,1.9-2.62.93-4.98,2.24-7.09,3.93-2.11,1.69-3.17,3.8-3.17,6.33,0,1.01.93,4.43,2.79,10.26,1.86,5.83,4.22,12.92,7.09,21.28,2.87,8.36,6.08,17.44,9.63,27.23,3.55,9.8,6.92,19.21,10.13,28.24,3.21,9.04,6.12,17.14,8.74,24.32,2.62,7.18,4.52,12.37,5.7,15.58.51-1.18,1.39-3.67,2.66-7.47s2.87-8.44,4.81-13.93c1.94-5.49,4.05-11.61,6.33-18.37,2.28-6.75,4.56-13.63,6.84-20.64,2.28-7.01,4.56-14.02,6.84-21.03,2.28-7.01,4.35-13.55,6.21-19.63,2.36-7.77,3.71-13.43,4.05-16.97.34-3.55.51-6.16.51-7.85,0-2.53-.76-4.6-2.28-6.21-1.52-1.6-3.38-2.95-5.57-4.05-2.2-1.1-4.56-1.94-7.09-2.53-2.53-.59-4.81-.97-6.84-1.14v-2.53h55.73v2.53c-4.22.51-7.81,1.69-10.77,3.55Z"/>
    <path class="cls-1" d="M3103.79,673.43c-3.8,2.37-6.71,6-8.74,10.89-1.18,2.53-1.94,7.22-2.28,14.06-.34,6.84-.68,14.15-1.01,21.91-.34,7.26-.63,15.83-.89,25.71-.25,9.88-.38,20.48-.38,31.79v16.21c0,5.91.04,11.95.13,18.11.08,6.17.13,12.29.13,18.37v16.47c0,.68-.21,1.23-.63,1.65-.42.42-1.06.63-1.9.63-1.35,0-2.87-.84-4.56-2.53-14.36-16.55-27.44-31.75-39.26-45.6-11.82-13.84-23.1-27.06-33.82-39.64-10.73-12.58-21.24-24.86-31.54-36.86-10.3-11.99-21.2-24.4-32.68-37.24v106.9c0,8.61.21,16.38.63,23.3.42,6.93,1.48,12.08,3.17,15.45,1.86,3.89,4.77,6.8,8.74,8.74,3.97,1.94,9.41,3.34,16.34,4.18v2.53h-62.31v-2.53c4.05-.51,8.11-1.56,12.16-3.17,4.05-1.6,7.26-4.26,9.63-7.98,2.36-3.55,3.88-8.78,4.56-15.71.67-6.92,1.18-15.2,1.52-24.82.34-7.26.59-15.83.76-25.71.17-9.88.25-20.47.25-31.79v-30.9c0-3.38-.09-7.51-.25-12.41-.51-4.9-1.69-8.91-3.55-12.03-1.86-3.12-4.05-5.57-6.59-7.35s-5.28-3.04-8.23-3.8c-2.96-.76-5.79-1.31-8.49-1.65v-2.53h51.42l120.07,140.34v-86.13c0-6.75-.09-13.21-.25-19.38-.17-6.16-.93-11.02-2.28-14.57-1.69-4.73-4.69-8.57-8.99-11.53-4.31-2.95-10.51-5.02-18.62-6.21v-2.53h62.82v2.53c-6.25.85-11.27,2.45-15.07,4.81Z"/>
    <path class="cls-1" d="M3243.74,848.47v-2.53c.51,0,1.73-.17,3.67-.51,1.94-.34,3.97-.93,6.08-1.77,2.11-.84,3.97-2.03,5.57-3.55,1.6-1.52,2.41-3.46,2.41-5.83,0-1.52-.47-4.01-1.39-7.47-.93-3.46-2.24-7.68-3.93-12.67-1.69-4.98-3.63-10.51-5.83-16.59-2.2-6.08-4.56-12.41-7.09-19h-67.38c-2.53,6.42-4.98,12.54-7.35,18.37-2.37,5.83-4.73,11.7-7.09,17.61-3.55,9.12-5.32,15.54-5.32,19.25,0,2.2.67,4.01,2.03,5.45,1.35,1.44,3.08,2.62,5.19,3.55,2.11.93,4.39,1.61,6.84,2.03,2.45.42,4.77.8,6.97,1.14v2.53h-53.96v-2.79c4.39-.51,8.15-1.69,11.27-3.55,3.12-1.86,4.94-3.12,5.45-3.8,1.18-1.18,3.12-3.97,5.83-8.36,2.7-4.39,5.99-10.89,9.88-19.5,3.55-7.94,7.51-16.97,11.91-27.1,4.39-10.13,8.91-20.56,13.55-31.28,4.64-10.72,9.25-21.53,13.81-32.42,4.56-10.89,8.87-21.07,12.92-30.52l-2.53-5.57c3.04-1.35,5.78-2.95,8.23-4.81,2.45-1.86,4.6-3.8,6.46-5.83,1.86-2.03,3.42-3.97,4.69-5.83,1.27-1.86,2.24-3.38,2.91-4.56h2.03c5.23,14.02,10.22,27.32,14.95,39.9,4.73,12.58,9.25,24.7,13.55,36.35,4.31,11.65,8.49,22.92,12.54,33.82,4.05,10.89,8.11,21.66,12.16,32.3,1.86,5.24,3.59,9.59,5.19,13.05,1.6,3.46,3.42,7.39,5.45,11.78.34.68,1.1,1.86,2.28,3.55,1.18,1.69,2.74,3.42,4.69,5.19,1.94,1.77,4.35,3.34,7.22,4.69,2.87,1.35,6.25,2.11,10.13,2.28v3.04h-73.97ZM3210.56,694.96c-1.01,2.2-2.49,5.66-4.43,10.39-1.94,4.73-4.35,10.47-7.22,17.23-2.87,6.76-6.04,14.4-9.5,22.92-3.46,8.53-7.22,17.78-11.27,27.74h63.08c-2.87-7.6-5.79-15.2-8.74-22.8-2.96-7.6-5.83-14.9-8.61-21.91-2.79-7-5.32-13.42-7.6-19.25-2.28-5.83-4.18-10.59-5.7-14.31Z"/>
    <path class="cls-1" d="M3502.37,713.71c-1.35-3.04-2.96-6.21-4.81-9.5-1.86-3.29-3.76-6.37-5.7-9.25-1.94-2.87-3.84-5.53-5.7-7.98-1.86-2.45-3.46-4.26-4.81-5.45-3.55-3.38-7.39-5.61-11.53-6.71-4.14-1.1-9.42-1.73-15.83-1.9-3.21,0-6-.04-8.36-.13-2.37-.08-4.73-.13-7.09-.13h-16.72c0,4.22-.04,9.97-.13,17.23-.09,7.26-.13,14.86-.13,22.8v99.05c0,4.9.13,9.59.38,14.06.25,4.48,1.05,7.64,2.41,9.5,2.53,3.72,6.12,6.25,10.77,7.6,4.64,1.35,8.82,2.37,12.54,3.04v2.53h-82.33v-2.53c4.39-.51,8.61-1.35,12.67-2.53,4.05-1.18,8.02-3.97,11.91-8.36.84-.84,1.48-2.24,1.9-4.18.42-1.94.76-4.14,1.01-6.59.25-2.45.42-5.11.51-7.98.08-2.87.13-5.66.13-8.36,0-2.36.04-5.49.13-9.37.08-3.88.17-8.19.25-12.92.08-4.73.13-9.62.13-14.69v-98.29h-16.72c-2.2,0-4.52.04-6.97.13-2.45.09-5.28.13-8.49.13-6.42.17-11.7.93-15.83,2.28-4.14,1.35-7.98,3.72-11.53,7.09-1.35,1.18-2.91,2.96-4.69,5.32-1.77,2.37-3.63,4.94-5.57,7.73-1.94,2.79-3.8,5.79-5.57,8.99-1.77,3.21-3.17,6.33-4.18,9.37l-2.28-.76,7.6-48.13c3.88.85,7.47,1.52,10.77,2.03s8.06.85,14.31,1.01c6.42.17,12.16.3,17.23.38,5.07.09,9.96.13,14.69.13h48.13c5.07,0,9.96-.04,14.69-.13,4.73-.08,9.63-.17,14.69-.25,5.07-.08,10.81-.13,17.23-.13,5.57-.17,10.17-.63,13.81-1.39,3.63-.76,7.39-1.73,11.27-2.91l8.11,49.4-2.28.76Z"/>
    <path class="cls-1" d="M3518.08,848.47v-2.53c4.22-.67,8.15-1.77,11.78-3.29,3.63-1.52,6.71-3.71,9.25-6.59.84-1.01,1.48-2.45,1.9-4.31.42-1.86.76-4.05,1.01-6.59.25-2.53.42-5.19.51-7.98.08-2.79.13-5.53.13-8.23,0-2.36.04-5.57.13-9.63.08-4.05.17-8.49.25-13.3.08-4.81.13-9.75.13-14.82v-73.21c0-3.04-.13-5.87-.38-8.49-.25-2.62-.63-4.98-1.14-7.09-.51-2.11-1.27-3.76-2.28-4.94-2.37-2.87-5.28-4.94-8.74-6.21-3.46-1.27-7.39-2.15-11.78-2.66v-2.53h75.74v2.53c-3.55.51-7.35,1.44-11.4,2.79-4.05,1.35-7.18,4.05-9.37,8.11-1.52,2.87-2.32,6.5-2.41,10.89-.09,4.39-.21,8.53-.38,12.41,0,4.22-.04,8.4-.13,12.54-.09,4.14-.13,8.32-.13,12.54v84.86c0,4.9.08,9.63.25,14.19.17,4.56.93,7.77,2.28,9.63,2.03,2.87,5.23,5.07,9.63,6.59,4.39,1.52,8.36,2.45,11.91,2.79v2.53h-76.75Z"/>
    <path class="cls-1" d="M3802.29,793.5c-5.07,11.49-11.95,21.45-20.65,29.89-8.7,8.45-18.83,14.95-30.4,19.5-11.57,4.56-23.86,6.84-36.86,6.84s-25-2.24-36.48-6.71c-11.49-4.47-21.53-10.81-30.14-19-8.61-8.19-15.41-17.99-20.39-29.38-4.98-11.4-7.47-23.94-7.47-37.62,0-14.52,2.62-27.57,7.85-39.14,5.23-11.57,12.29-21.36,21.15-29.38,8.87-8.02,19.25-14.19,31.16-18.49,11.91-4.31,24.44-6.46,37.62-6.46,14.35,0,27.23,2.53,38.63,7.6,11.4,5.07,21.06,11.87,29,20.39,7.94,8.53,14.02,18.37,18.24,29.51,4.22,11.15,6.33,22.8,6.33,34.96,0,13.51-2.53,26.01-7.6,37.49ZM3774.56,725.11c-2.62-10.47-6.59-19.97-11.91-28.5-5.32-8.53-11.95-15.45-19.89-20.77-7.94-5.32-17.31-7.98-28.12-7.98s-20.48,2.66-28.5,7.98c-8.02,5.32-14.61,12.2-19.76,20.64-5.15,8.45-8.95,18.03-11.4,28.75-2.45,10.73-3.67,21.58-3.67,32.55s1.35,22.54,4.05,33.18c2.7,10.64,6.71,20.01,12.03,28.12,5.32,8.11,11.99,14.61,20.01,19.51,8.02,4.9,17.35,7.35,27.99,7.35s19.89-2.7,27.74-8.11c7.85-5.4,14.4-12.37,19.63-20.9,5.23-8.53,9.16-18.11,11.78-28.75,2.62-10.64,3.93-21.28,3.93-31.92s-1.31-20.68-3.93-31.16Z"/>
    <path class="cls-1" d="M4021.54,673.43c-3.8,2.37-6.71,6-8.74,10.89-1.18,2.53-1.94,7.22-2.28,14.06-.34,6.84-.68,14.15-1.01,21.91-.34,7.26-.63,15.83-.89,25.71-.25,9.88-.38,20.48-.38,31.79v16.21c0,5.91.04,11.95.13,18.11.08,6.17.13,12.29.13,18.37v16.47c0,.68-.21,1.23-.63,1.65-.42.42-1.06.63-1.9.63-1.35,0-2.87-.84-4.56-2.53-14.36-16.55-27.44-31.75-39.26-45.6-11.82-13.84-23.1-27.06-33.82-39.64-10.73-12.58-21.24-24.86-31.54-36.86-10.3-11.99-21.2-24.4-32.68-37.24v106.9c0,8.61.21,16.38.63,23.3.42,6.93,1.48,12.08,3.17,15.45,1.86,3.89,4.77,6.8,8.74,8.74,3.97,1.94,9.41,3.34,16.34,4.18v2.53h-62.31v-2.53c4.05-.51,8.11-1.56,12.16-3.17,4.05-1.6,7.26-4.26,9.63-7.98,2.36-3.55,3.88-8.78,4.56-15.71.67-6.92,1.18-15.2,1.52-24.82.34-7.26.59-15.83.76-25.71.17-9.88.25-20.47.25-31.79v-30.9c0-3.38-.09-7.51-.25-12.41-.51-4.9-1.69-8.91-3.55-12.03-1.86-3.12-4.05-5.57-6.59-7.35s-5.28-3.04-8.23-3.8c-2.96-.76-5.79-1.31-8.49-1.65v-2.53h51.42l120.07,140.34v-86.13c0-6.75-.09-13.21-.25-19.38-.17-6.16-.93-11.02-2.28-14.57-1.69-4.73-4.69-8.57-8.99-11.53-4.31-2.95-10.51-5.02-18.62-6.21v-2.53h62.82v2.53c-6.25.85-11.27,2.45-15.07,4.81Z"/>
  </g>
  <g>
    <path class="cls-1" d="M29.03,480.83c21.29-21.29,40.82-36.77,58.61-46.45,17.78-9.67,35.38-14.52,52.8-14.52,4.11,0,8.17.18,12.16.54,3.99.36,7.8.91,11.43,1.63,22.98-9.19,40.16-18.26,51.53-27.22,11.37-8.95,17.06-17.66,17.06-26.13,0-6.53-2.67-15.3-7.98-26.31-5.32-11.01-14.76-27.04-28.31-48.08-5.08-7.98-12.46-18.51-22.14-31.57-20.57-28.54-30.85-49.47-30.85-62.78,0-22.74,16.45-43.42,49.35-62.05,32.9-18.63,75.72-30.6,128.46-35.93-28.55-14.75-57.46-26.13-86.73-34.11-29.27-7.98-56.61-11.98-82.01-11.98-40.41,0-73.06,11.79-97.98,35.38-24.92,23.59-37.38,54.13-37.38,91.63,0,22.5,5.86,41.91,17.6,58.24,11.73,16.33,28.49,28.61,50.26,36.83l-6.17,15.6c-25.65-9.67-45.18-24.31-58.61-43.91S0,206.24,0,178.18c0-50.56,18.33-92.9,54.98-127.01S137.53,0,192.69,0c38.95,0,77.05,6.71,114.31,20.14,37.25,13.43,71.25,32.72,101.97,57.88,42.33,34.36,75.54,75.12,99.61,122.29,24.07,47.17,36.11,94.59,36.11,142.25,0,35.33-6.11,67.02-18.33,95.08-12.22,28.07-30.79,53.11-55.7,75.12-19.84,17.66-44.52,32.72-74.03,45.18-29.52,12.46-54.2,18.69-74.03,18.69-12.34,0-25.65-2.9-39.92-8.71-14.28-5.81-30.97-15-50.08-27.58-7.75-5.32-18.51-12.7-32.3-22.14-51.05-35.32-85.16-52.98-102.33-52.98-9.2,0-18.21,1.81-27.04,5.44-8.83,3.63-19.78,10.52-32.84,20.68l-9.07-10.52ZM185.8,432.56c16.21,9.44,37.86,23.59,64.96,42.46,52.74,36.53,93.74,54.8,123.02,54.8,37.5,0,69.91-13.73,97.25-41.19,27.34-27.46,41.01-60.54,41.01-99.25,0-49.59-14.7-98.4-44.09-146.42-29.39-48.02-70.94-90.42-124.65-127.19-40.16,2.67-73.37,10.22-99.61,22.68-26.25,12.46-39.37,25.71-39.37,39.74,0,10.89,13.06,35.33,39.19,73.3,5.08,7.26,8.95,12.83,11.61,16.69,13.55,20.08,23.71,37.26,30.48,51.53,6.77,14.28,10.16,25.4,10.16,33.39,0,15.48-30.85,38.95-92.54,70.4-7.5,3.87-13.31,6.9-17.42,9.07Z"/>
    <path class="cls-1" d="M795.46,454.7l8.71,9.07-100.88,95.8-9.8-5.81,2.18-6.17c-30.24-13.06-51.89-28.42-64.96-46.09-13.06-17.66-19.6-40.4-19.6-68.22v-108.5c0-5.81-.12-12.46-.36-19.96-.24-7.5-.36-12.21-.36-14.15,0-8.22.96-14.27,2.9-18.14,1.93-3.87,6.17-8.46,12.7-13.79l97.25-82.74h16.33l63.14,110.68c1.21,1.94,2.12,3.75,2.72,5.44.6,1.7.91,3.39.91,5.08s-.31,3.33-.91,4.9c-.61,1.58-1.51,2.96-2.72,4.17l-140.44,113.58c2.42,20.57,10.04,37.5,22.86,50.8,12.82,13.31,27.45,19.96,43.91,19.96,10.16,0,20.56-2.9,31.21-8.71,10.64-5.81,22.37-14.88,35.2-27.22ZM660.83,273.62v127.74l90.72-73.67c.96-.73,1.81-1.87,2.54-3.45.73-1.57,1.09-3.08,1.09-4.54,0-.48-.18-1.27-.54-2.36-.36-1.09-1.39-3.32-3.08-6.71l-52.98-92.17c-17.18,12.58-27.76,22.08-31.75,28.49-3.99,6.41-5.99,15.3-5.99,26.67Z"/>
    <path class="cls-1" d="M932.29,559.57l-9.07-5.08,5.08-9.07c-27.34-16.45-45.91-32.72-55.7-48.81-9.8-16.09-14.7-39.13-14.7-69.13v-126.65c0-15.24,1.21-25.82,3.63-31.75,2.42-5.92,7.13-12.16,14.15-18.69l70.4-65.32c2.9-2.9,5.62-5.14,8.17-6.71,2.54-1.57,4.54-2.36,5.99-2.36,6.77,0,16.09,5.57,27.94,16.69,11.85,11.13,20.44,16.69,25.77,16.69,2.42,0,6.41-1.57,11.98-4.72l.73-.36,9.44,8.35-37.01,34.84c-2.67,2.42-4.96,4.12-6.9,5.08-1.94.97-3.63,1.45-5.08,1.45-1.21,0-3.33-.84-6.35-2.54-3.03-1.69-6.59-3.99-10.71-6.89l-35.56-26.85-10.52,9.07c-6.05,5.32-10.29,10.89-12.7,16.69-2.42,5.81-3.63,14.52-3.63,26.13v134.63c0,14.52.48,25.35,1.45,32.48.96,7.14,2.42,12.64,4.35,16.51,5.08,9.44,13,18.03,23.77,25.77,10.76,7.75,20.02,11.61,27.76,11.61,4.84,0,11.01-2.48,18.51-7.44,7.5-4.96,19.83-15.18,37.01-30.66l11.25,9.07c-25.16,24.44-44.94,43.79-59.33,58.06-14.4,14.28-27.76,27.58-40.1,39.92Z"/>
    <path class="cls-1" d="M1133.34,458.69c0,9.68.6,16.03,1.81,19.05,1.21,3.03,3.38,5.51,6.53,7.44l17.06,10.52c2.42,1.21,4.29,2,5.62,2.36,1.33.36,2.72.54,4.17.54s3.27-.42,5.44-1.27c2.18-.84,4.47-2.11,6.9-3.81l26.13-18.51,10.52,10.89-91.45,73.67-9.8-5.81,3.99-5.44v-.73c0-3.87-5.51-9.01-16.51-15.42-11.01-6.41-25.1-12.4-42.28-17.96v-13.43c7.98-.96,13.66-3.69,17.06-8.16,3.38-4.47,5.08-11.67,5.08-21.59V104.15c0-7.74-1.03-15.18-3.08-22.32-2.06-7.13-5.51-14.57-10.34-22.32l10.52-7.62c6.04,6.05,10.76,12.22,14.15,18.51,3.39,6.29,5.81,13.31,7.26,21.05,7.5-23.71,19.65-41.67,36.47-53.89,16.81-12.21,37.92-18.33,63.32-18.33v15.6c-24.92,1.45-42.58,9.25-52.98,23.41-10.4,14.15-15.6,38.05-15.6,71.67v328.78Z"/>
    <path class="cls-1" d="M1376.49,465.22c-20.81,16.46-40.22,32.48-58.24,48.08-18.03,15.6-34.78,31.03-50.26,46.27l-9.8-6.53c.24-.49.6-1.09,1.09-1.81,1.69-2.9,2.54-4.84,2.54-5.81,0-1.45-2.9-5.68-8.71-12.7-38.23-45.72-57.34-95.92-57.34-150.6,0-60.96,39.79-126.52,119.39-196.68l10.89-9.43h14.52l1.09,3.99c11.85,8.71,26.91,17.66,45.18,26.85,18.26,9.2,39.01,18.02,62.23,26.49v14.15c-9.2,2.67-15.3,6.71-18.33,12.16-3.03,5.44-4.54,15.3-4.54,29.58v153.86c0,16.21,2.42,28.79,7.26,37.74,4.84,8.95,11.61,13.43,20.32,13.43,2.18,0,4.54-.96,7.08-2.9,2.54-1.93,6.83-6.41,12.88-13.43l11.25,8.71-60.24,72.94-11.25-5.81,5.44-8.35c-17.91-14.03-29.46-25.88-34.66-35.56-5.21-9.67-7.8-22.37-7.8-38.1v-6.53ZM1376.49,260.92c-13.55-6.29-26.25-13.18-38.1-20.68-11.86-7.5-22.99-15.48-33.39-23.95-20.32,15.24-35.69,33.75-46.09,55.52-10.4,21.77-15.6,46.33-15.6,73.67,0,36.05,8.04,69.62,24.13,100.7,16.09,31.09,30.66,46.63,43.73,46.63,1.69,0,4.05-.78,7.08-2.36,3.02-1.57,6.35-3.81,9.98-6.71l48.26-37.74v-185.07Z"/>
    <path class="cls-1" d="M1531.82,281.6c0-11.12-1.21-18.93-3.63-23.41-2.42-4.47-7.14-9.25-14.15-14.33l-17.06,14.88-9.8-9.8,15.6-18.14c22.98-27.09,38.58-45.36,46.81-54.8l11.98,7.62c-.97,2.18-1.7,4.24-2.18,6.17-.49,1.94-.73,3.63-.73,5.08,0,3.15,3.81,8.95,11.43,17.42,7.62,8.47,11.43,18.51,11.43,30.12v21.41c8.71-14.75,20.14-31.57,34.29-50.44,14.15-18.87,21.59-31.21,22.32-37.01l12.7-.36c1.69,9.43,5.26,18.57,10.71,27.4,5.44,8.83,13,17.84,22.68,27.04v19.23c-5.81,6.29-11.01,13.19-15.6,20.68-4.6,7.5-8.83,15.73-12.7,24.68h-14.15c-2.9-8.46-6.71-16.75-11.43-24.86-4.72-8.1-10.83-16.63-18.33-25.58l-15.6,23.59c-5.57,8.47-9.44,15.91-11.61,22.32-2.18,6.41-3.27,15.91-3.27,28.49v148.42c0,3.63.48,6.53,1.45,8.71.96,2.18,2.42,3.99,4.35,5.44l19.6,14.15c2.18,1.45,4.17,2.54,5.99,3.27,1.81.73,3.45,1.09,4.9,1.09,1.93,0,3.63-.3,5.08-.91,1.45-.6,2.78-1.51,3.99-2.72l37.74-32.66,11.25,11.25-86.73,84.55-11.98-5.08,2.9-5.44c-11.37-9.92-23.41-18.69-36.11-26.31s-25.71-13.85-39.01-18.69v-13.43c9.67-1.21,16.57-4.59,20.68-10.16,4.11-5.56,6.17-14.39,6.17-26.49v-172.37Z"/>
    <path class="cls-1" d="M1878.03,465.22c-20.81,16.46-40.22,32.48-58.24,48.08-18.03,15.6-34.78,31.03-50.26,46.27l-9.8-6.53c.24-.49.6-1.09,1.09-1.81,1.69-2.9,2.54-4.84,2.54-5.81,0-1.45-2.9-5.68-8.71-12.7-38.23-45.72-57.34-95.92-57.34-150.6,0-60.96,39.79-126.52,119.39-196.68l10.89-9.43h14.52l1.09,3.99c11.85,8.71,26.91,17.66,45.18,26.85,18.26,9.2,39.01,18.02,62.23,26.49v14.15c-9.2,2.67-15.3,6.71-18.33,12.16-3.03,5.44-4.54,15.3-4.54,29.58v153.86c0,16.21,2.42,28.79,7.26,37.74,4.84,8.95,11.61,13.43,20.32,13.43,2.18,0,4.54-.96,7.08-2.9,2.54-1.93,6.83-6.41,12.88-13.43l11.25,8.71-60.24,72.94-11.25-5.81,5.44-8.35c-17.91-14.03-29.46-25.88-34.66-35.56-5.21-9.67-7.8-22.37-7.8-38.1v-6.53ZM1878.03,260.92c-13.55-6.29-26.25-13.18-38.1-20.68-11.86-7.5-22.99-15.48-33.39-23.95-20.32,15.24-35.69,33.75-46.09,55.52-10.4,21.77-15.6,46.33-15.6,73.67,0,36.05,8.04,69.62,24.13,100.7,16.09,31.09,30.66,46.63,43.73,46.63,1.69,0,4.05-.78,7.08-2.36,3.02-1.57,6.35-3.81,9.98-6.71l48.26-37.74v-185.07Z"/>
    <path class="cls-1" d="M2012.67,517.84v-13.79c7.98-1.93,13.43-5.26,16.33-9.98,2.9-4.72,4.35-14.33,4.35-28.85v-217.01h-37.38v-17.06c17.17-11.61,32.6-27.94,46.27-48.99,13.67-21.05,27.52-50.32,41.55-87.82h15.6c-5.32,21.05-9.38,40.77-12.16,59.15-2.78,18.39-4.17,35.56-4.17,51.53h66.05v43.18h-66.05v232.61l17.06,12.7c1.93,1.45,3.69,2.54,5.26,3.27,1.57.73,3.08,1.09,4.54,1.09,1.21,0,2.54-.3,3.99-.91,1.45-.6,3.02-1.51,4.72-2.72l21.05-16.33,8.71,10.16c-12.1,11.13-24.08,22.74-35.93,34.84-11.86,12.1-23.59,24.79-35.2,38.1l-12.7-5.08,2.9-8.35c-10.89-7.5-20.75-13.67-29.58-18.51-8.83-4.84-17.24-8.58-25.22-11.25Z"/>
    <path class="cls-1" d="M2234.77,559.57l-11.61-5.81,2.9-6.89c-12.34-9.43-20.38-17.24-24.13-23.41-3.75-6.17-5.62-14.21-5.62-24.13,0-6.29.24-14.52.73-24.68.48-10.16.73-17.06.73-20.68v-169.47c0-12.34-.85-20.74-2.54-25.22-1.7-4.47-4.6-6.71-8.71-6.71-3.15,0-6.41.97-9.8,2.9-3.39,1.94-7.98,5.69-13.79,11.25l-9.8-9.44c12.34-12.09,24.37-24.79,36.11-38.1,11.73-13.3,23.53-27.7,35.38-43.18l10.16,6.89c-1.7,3.15-3.08,6.17-4.17,9.07-1.09,2.9-1.63,5.08-1.63,6.53,0,4.6,5.08,10.59,15.24,17.96,10.16,7.38,16.45,11.07,18.87,11.07.24,0,.96.24,2.18.73,1.21.49,2.42.97,3.63,1.45v16.33c-8.23,1.7-13.85,5.08-16.87,10.16-3.03,5.08-4.54,14.76-4.54,29.03v177.81c0,7.98,1.75,14.7,5.26,20.14,3.5,5.44,7.44,8.17,11.79,8.17,2.42,0,5.5-1.39,9.25-4.17,3.75-2.78,8.65-7.31,14.7-13.61l10.89,10.89c-11.37,11.37-22.5,23.29-33.39,35.74-10.89,12.46-21.29,25.58-31.21,39.37ZM2206.47,119.75c.73-3.38,1.57-7.98,2.54-13.79,10.89-62.17,26.49-93.26,46.81-93.26,7.98,0,14.15,2.06,18.51,6.17,4.35,4.12,6.53,9.92,6.53,17.42,0,7.02-3.45,15.55-10.34,25.58-6.9,10.04-23.77,29.34-50.62,57.88h-13.43Z"/>
    <path class="cls-1" d="M2500.06,176l7.62,13.43-11.25,6.17c4.84,10.4,18.33,32.54,40.46,66.41,22.14,33.87,33.2,64.47,33.2,91.81,0,45.97-36.53,108.75-109.59,188.34-7.02,7.74-12.34,13.55-15.97,17.42h-14.88c-1.7-8.23-10.71-16.33-27.04-24.31-16.33-7.98-42.04-16.45-77.11-25.4v-14.88c6.29-1.93,10.71-7.31,13.25-16.15,2.54-8.83,3.81-24.01,3.81-45.54v-127.74c0-13.3-.31-24.98-.91-35.02-.61-10.04-1.51-19.42-2.72-28.12l161.12-66.41ZM2439.09,217.73l-46.81,19.23v233.34c8.71,4.36,19.83,10.04,33.39,17.06,23.71,12.1,37.62,18.14,41.73,18.14,8.95,0,20.74-11.97,35.38-35.93,14.63-23.95,21.95-48.38,21.95-73.3,0-32.66-16.82-73.67-50.44-123.02-16.21-23.46-27.94-41.97-35.2-55.52Z"/>
    <path class="cls-1" d="M2682.24,295.75v169.47c0,12.83,2.05,22.62,6.17,29.39,4.11,6.78,10.52,10.89,19.23,12.34l-.36,14.88c-10.65,2.18-19.48,6.53-26.49,13.06-7.02,6.53-12.22,15.24-15.6,26.13h-15.6c-3.39-10.89-8.59-19.6-15.6-26.13-7.02-6.53-15.85-10.89-26.49-13.06l-.36-14.88c8.71-1.45,15.12-5.56,19.23-12.34,4.11-6.77,6.17-16.57,6.17-29.39v-185.07c0-10.89-1.15-18.69-3.45-23.41-2.3-4.72-6.35-9.49-12.16-14.33l-17.06,16.33-11.98-9.8,63.14-72.94,11.98,8.35-3.63,5.08c-.49.49-.85,1.09-1.09,1.81-.24.73-.36,2.18-.36,4.35,0,1.21,1.45,3.27,4.35,6.17,13.79,12.83,20.68,31.82,20.68,56.97,0,3.87-.06,6.89-.18,9.07-.12,2.18-.31,3.99-.54,5.44l95.08-97.25h15.6c7.74,13.06,17.96,24.01,30.66,32.84,12.7,8.83,24.49,13.49,35.38,13.97l.36,14.15c-5.81,2.67-10.16,6.71-13.06,12.16-2.9,5.44-4.35,12.52-4.35,21.23v199.22c0,8.23,1.15,14.4,3.45,18.51,2.3,4.12,5.62,6.17,9.98,6.17,3.63,0,7.26-1.45,10.89-4.35,3.63-2.9,7.01-6.9,10.16-11.98l11.61,7.98-57.7,75.12-11.25-7.26,4.35-8.35c-13.79-9.19-22.81-16.87-27.04-23.04-4.24-6.17-6.35-13.85-6.35-23.04,0-6.77.36-16.39,1.09-28.85.73-12.46,1.09-21.35,1.09-26.67v-171.65c0-8.47-4.96-17.06-14.88-25.77-9.92-8.71-17.54-13.06-22.86-13.06-2.67,0-5.57.97-8.71,2.9-3.15,1.94-7.26,5.44-12.34,10.52l-51.17,48.99Z"/>
    <path class="cls-1" d="M2908.7,489.9v-14.15c16.21-7.26,30.06-18.44,41.55-33.57,11.49-15.12,17.24-28.97,17.24-41.55s-9.25-31.39-27.76-57.16c-18.51-25.76-27.76-43.36-27.76-52.8,0-5.08,1.45-10.34,4.35-15.79,2.9-5.44,7.86-11.91,14.88-19.42,22.5-23.71,42.1-42.88,58.79-57.52,16.69-14.63,27.34-21.95,31.93-21.95,1.21,0,5.2,2.54,11.98,7.62,23.95,17.91,44.15,26.85,60.6,26.85,15,0,26.55-3.81,34.66-11.43,8.1-7.62,12.16-18.44,12.16-32.48,0-16.45-4.42-30.12-13.25-41.01-8.83-10.89-19.78-16.33-32.84-16.33-9.68,0-17.6,3.33-23.77,9.98-6.17,6.66-10.34,16.15-12.52,28.49-5.81-4.84-11.19-8.71-16.15-11.61-4.96-2.9-9.98-5.2-15.06-6.89,5.08-12.34,12.76-21.96,23.04-28.85,10.28-6.89,21.95-10.34,35.02-10.34,19.6,0,36.35,7.44,50.26,22.32,13.91,14.88,20.87,32.97,20.87,54.25,0,9.92-2.12,20.38-6.35,31.39-4.24,11.01-10.22,21.59-17.96,31.75l-54.43,69.67c24.68,12.83,43.6,28.43,56.79,46.81,13.18,18.39,19.78,38.23,19.78,59.51s-5.69,41.07-17.06,59.33c-11.37,18.27-28.19,34.66-50.44,49.17-5.81,3.63-14.4,8.47-25.77,14.52-22.02,11.61-37.01,21.89-45,30.85h-13.43c-1.45-6.29-9.98-15.24-25.58-26.85-15.6-11.61-38.53-25.88-68.77-42.82ZM3012.12,359.62l75.84-96.53c-21.77-1.21-42.4-7.98-61.87-20.32-19.48-12.34-30.54-18.51-33.2-18.51-5.57,0-13.19,4.9-22.86,14.7-9.68,9.8-14.52,18.09-14.52,24.86,0,5.81,7.38,18.69,22.14,38.65,14.75,19.96,26.25,39.01,34.47,57.16ZM2959.5,452.52c7.5,5.57,17.78,13.19,30.85,22.86,31.93,23.95,52.13,35.93,60.6,35.93,13.79,0,28.12-7.5,43-22.5,14.88-15,22.32-31.57,22.32-49.72,0-21.05-8.95-41.12-26.85-60.24-17.91-19.11-32.78-28.67-44.63-28.67-1.94,0-3.87.73-5.81,2.18-1.94,1.45-4.48,4.12-7.62,7.98l-71.85,92.17Z"/>
  </g>
</svg>